<svg width="493" height="169" viewBox="0 0 493 169" fill="none" xmlns="http://www.w3.org/2000/svg">
<g clip-path="url(#clip0_648_9)">
<path d="M89.1459 94.2151C93.2396 92.7463 97.5313 92.3765 102.021 93.1109C106.505 93.8505 110.51 95.2984 114.042 97.4651C119.484 100.757 123.63 105.298 126.479 111.09C129.323 116.882 130.75 122.851 130.75 128.986C130.51 135.127 129 140.757 126.208 145.882C123.427 150.996 119.714 155.361 115.063 158.986C110.74 162.168 106.109 164.476 101.167 165.903C96.2188 167.319 91.1355 168.028 85.9167 168.028H4.2709V108.361C7.21361 112.46 10.7344 115.705 14.8334 118.09C18.6928 120.356 22.7813 121.83 27.1042 122.507C31.4219 123.189 35.7397 122.965 40.0626 121.84L39.0417 119.444C35.1667 120.361 31.2136 120.481 27.1876 119.798C23.1563 119.106 19.4896 117.684 16.1876 115.528C12.7813 113.71 9.8334 111.184 7.3334 107.944C4.8334 104.71 2.9584 101.132 1.7084 97.2151C0.458398 93.288 -0.10931 89.3922 6.48517e-05 85.5276C0.218814 79.5015 1.69277 73.9338 4.41673 68.8193C7.15111 63.7099 10.7344 59.3922 15.1667 55.8609C19.2605 52.9182 23.7501 50.7672 28.6251 49.4026C33.5105 48.0276 38.4584 47.3401 43.4584 47.3401H122.208V100.694C121.193 99.7932 120.115 98.8922 118.979 97.9859C117.839 97.0693 116.646 96.2724 115.396 95.5901C111.422 92.9651 107.047 91.314 102.271 90.6318C97.5053 89.9547 92.8438 90.3557 88.2917 91.8401L89.1459 94.2151Z" fill="white"/>
<path d="M137.041 48.8818H209.999V168.028H137.041V48.8818Z" fill="white"/>
<path d="M343.64 117.903V120.986C342.39 130.309 339.004 138.606 333.494 145.882C327.978 153.147 321.067 158.856 312.765 163.007C304.473 167.147 295.39 169.215 285.515 169.215H218.515V47.5068H283.286C291.577 47.5068 299.416 48.7933 306.807 51.361C314.192 53.9183 320.702 57.8089 326.327 63.0277C331.952 68.2516 336.187 74.7881 339.036 82.6318C341.754 89.2152 342.89 96.1475 342.432 103.424C341.984 110.705 339.942 117.465 336.307 123.715C332.442 130.647 327.015 136.189 320.015 140.34C313.025 144.481 305.499 146.319 297.432 145.861C292.999 145.293 288.765 144.163 284.723 142.465C280.692 140.757 276.978 138.205 273.577 134.799L272.202 136.84C275.838 140.132 279.728 142.772 283.869 144.757C288.02 146.746 292.374 147.856 296.932 148.09C302.609 148.424 308.119 147.653 313.452 145.778C318.796 143.903 323.687 141.21 328.119 137.694C332.546 134.168 336.067 130.017 338.682 125.236C339.484 123.986 340.14 122.684 340.64 121.319C341.15 119.96 341.692 118.653 342.265 117.403L343.64 117.903Z" fill="white"/>
<path d="M387.781 129.34V168.028H349.073V129.34H387.781Z" fill="#FF1515"/>
<mask id="mask0_648_9" style="mask-type:luminance" maskUnits="userSpaceOnUse" x="389" y="138" width="17" height="27">
<path d="M389.333 138H405.333V164.667H389.333V138Z" fill="white"/>
</mask>
<g mask="url(#mask0_648_9)">
<mask id="mask1_648_9" style="mask-type:luminance" maskUnits="userSpaceOnUse" x="389" y="136" width="21" height="29">
<path d="M393.656 136.724L409.042 162.208L405.125 164.568L389.74 139.088L393.656 136.724Z" fill="white"/>
</mask>
<g mask="url(#mask1_648_9)">
<mask id="mask2_648_9" style="mask-type:luminance" maskUnits="userSpaceOnUse" x="389" y="139" width="17" height="26">
<path d="M401.344 149.463L405.12 164.562L389.74 139.088L401.344 149.463Z" fill="white"/>
</mask>
<g mask="url(#mask2_648_9)">
<path d="M393.656 136.724L409.042 162.208L405.125 164.568L389.74 139.088L393.656 136.724Z" fill="white"/>
</g>
</g>
</g>
<path d="M344.485 82.0094L343.673 79.0302C342.439 69.7229 343.538 60.8323 346.965 52.3635C350.381 43.9052 355.558 36.5823 362.485 30.4052C369.402 24.2385 377.626 19.8635 387.152 17.2802L451.819 -0.261475L483.673 117.197L421.152 134.155C413.152 136.322 405.256 137.134 397.465 136.593C389.663 136.061 382.36 134.015 375.569 130.447C368.777 126.874 362.98 121.676 358.173 114.843C353.829 109.218 350.918 102.827 349.444 95.676C347.975 88.5354 348.173 81.4729 350.048 74.4885C351.965 66.7802 355.756 60.0094 361.423 54.176C367.079 48.3531 373.86 44.6135 381.777 42.9469C386.194 42.3219 390.579 42.301 394.923 42.8844C399.256 43.4781 403.517 44.9729 407.694 47.3635L408.485 45.051C404.11 42.8114 399.668 41.2802 395.152 40.4469C390.626 39.6135 386.131 39.6812 381.673 40.6552C376.105 41.8062 370.985 43.9885 366.319 47.1969C361.652 50.4156 357.647 54.3062 354.298 58.8635C350.954 63.4156 348.642 68.3427 347.36 73.6344C346.902 75.051 346.61 76.4781 346.485 77.926C346.36 79.3687 346.183 80.7698 345.944 82.1344L344.485 82.0094Z" fill="#828A96"/>
<path d="M353.76 87.2864L352.953 84.3124C351.724 75.0156 352.818 66.125 356.24 57.6406C359.635 49.1875 364.792 41.8645 371.708 35.677C378.635 29.5156 386.865 25.1406 396.396 22.5573L461.057 5.02082L492.922 122.5L430.427 139.448C422.422 141.62 414.526 142.437 406.734 141.906C398.917 141.385 391.615 139.323 384.833 135.729C378.036 132.172 372.229 126.979 367.411 120.146C363.068 114.516 360.167 108.115 358.714 100.948C357.24 93.8177 357.438 86.7604 359.313 79.7864C361.219 72.0833 365 65.3073 370.661 59.4635C376.323 53.6406 383.109 49.8906 391.021 48.2031C395.427 47.6145 399.813 47.6041 404.161 48.177C408.495 48.7812 412.755 50.2864 416.943 52.6875L417.734 50.3593C413.359 48.125 408.922 46.5833 404.406 45.7395C399.87 44.901 395.375 44.9687 390.922 45.9479C385.349 47.1146 380.234 49.2916 375.578 52.4791C370.906 55.7031 366.901 59.5885 363.563 64.1458C360.203 68.7083 357.875 73.6354 356.578 78.9322C356.156 80.3385 355.88 81.7656 355.755 83.2083C355.604 84.6614 355.411 86.0781 355.188 87.4583L353.76 87.2864Z" stroke="white" stroke-width="1.17197"/>
<mask id="mask3_648_9" style="mask-type:luminance" maskUnits="userSpaceOnUse" x="352" y="122" width="16" height="7">
<path d="M352 122H368V128.667H352V122Z" fill="white"/>
</mask>
<g mask="url(#mask3_648_9)">
<mask id="mask4_648_9" style="mask-type:luminance" maskUnits="userSpaceOnUse" x="353" y="120" width="16" height="9">
<path d="M353.958 120.635L368.609 125.76L367.823 128.016L353.172 122.885L353.958 120.635Z" fill="white"/>
</mask>
<g mask="url(#mask4_648_9)">
<mask id="mask5_648_9" style="mask-type:luminance" maskUnits="userSpaceOnUse" x="353" y="122" width="15" height="7">
<path d="M361.281 123.198L367.818 128.01L353.172 122.885L361.281 123.198Z" fill="white"/>
</mask>
<g mask="url(#mask5_648_9)">
<path d="M353.958 120.635L368.609 125.76L367.823 128.016L353.172 122.885L353.958 120.635Z" fill="white"/>
</g>
</g>
</g>
</g>
<defs>
<clipPath id="clip0_648_9">
<rect width="493" height="169" fill="white"/>
</clipPath>
</defs>
</svg>
