<svg width="274" height="169" viewBox="0 0 274 169" fill="none" xmlns="http://www.w3.org/2000/svg">
<g clip-path="url(#clip0_638_9)">
<path d="M124.646 119.352V122.436C123.396 131.759 120.01 140.056 114.5 147.332C108.984 154.597 102.073 160.306 93.7708 164.457C85.4791 168.597 76.3958 170.665 66.5208 170.665H-0.479248V48.9565H64.2916C72.5833 48.9565 80.4218 50.243 87.8124 52.8107C95.1978 55.368 101.708 59.2586 107.333 64.4774C112.958 69.7013 117.193 76.2378 120.042 84.0815C122.76 90.6649 123.896 97.5972 123.437 104.873C122.99 112.154 120.948 118.915 117.312 125.165C113.448 132.097 108.021 137.639 101.021 141.79C94.0312 145.931 86.5051 147.769 78.4374 147.311C74.0051 146.743 69.7708 145.613 65.7291 143.915C61.6978 142.207 57.9843 139.654 54.5833 136.248L53.2083 138.29C56.8437 141.582 60.7343 144.222 64.8749 146.207C69.026 148.196 73.3801 149.306 77.9374 149.54C83.6145 149.873 89.1249 149.102 94.4583 147.227C99.802 145.352 104.693 142.66 109.125 139.144C113.552 135.618 117.073 131.467 119.687 126.686C120.49 125.436 121.146 124.134 121.646 122.769C122.156 121.41 122.698 120.102 123.271 118.852L124.646 119.352Z" fill="black"/>
<path d="M168.802 130.79V169.477H130.094V130.79H168.802Z" fill="#FF1515"/>
<mask id="mask0_638_9" style="mask-type:luminance" maskUnits="userSpaceOnUse" x="170" y="138" width="17" height="27">
<path d="M170.333 138H186.333V164.667H170.333V138Z" fill="white"/>
</mask>
<g mask="url(#mask0_638_9)">
<mask id="mask1_638_9" style="mask-type:luminance" maskUnits="userSpaceOnUse" x="170" y="136" width="21" height="29">
<path d="M174.656 136.719L190.042 162.203L186.125 164.568L170.74 139.083L174.656 136.719Z" fill="white"/>
</mask>
<g mask="url(#mask1_638_9)">
<mask id="mask2_638_9" style="mask-type:luminance" maskUnits="userSpaceOnUse" x="170" y="139" width="17" height="26">
<path d="M182.344 149.458L186.12 164.562L170.74 139.083L182.344 149.458Z" fill="white"/>
</mask>
<g mask="url(#mask2_638_9)">
<path d="M174.656 136.719L190.042 162.203L186.125 164.568L170.74 139.083L174.656 136.719Z" fill="white"/>
</g>
</g>
</g>
<mask id="mask3_638_9" style="mask-type:luminance" maskUnits="userSpaceOnUse" x="133" y="122" width="16" height="7">
<path d="M133 122H149V128.667H133V122Z" fill="white"/>
</mask>
<g mask="url(#mask3_638_9)">
<mask id="mask4_638_9" style="mask-type:luminance" maskUnits="userSpaceOnUse" x="134" y="120" width="16" height="9">
<path d="M134.958 120.635L149.609 125.76L148.823 128.01L134.172 122.885L134.958 120.635Z" fill="white"/>
</mask>
<g mask="url(#mask4_638_9)">
<mask id="mask5_638_9" style="mask-type:luminance" maskUnits="userSpaceOnUse" x="134" y="122" width="15" height="7">
<path d="M142.281 123.198L148.818 128.01L134.172 122.885L142.281 123.198Z" fill="white"/>
</mask>
<g mask="url(#mask5_638_9)">
<path d="M134.958 120.635L149.609 125.76L148.823 128.01L134.172 122.885L134.958 120.635Z" fill="white"/>
</g>
</g>
</g>
<path d="M125.486 82.0257L124.673 79.0466C123.439 69.7393 124.538 60.8486 127.965 52.3799C131.382 43.9216 136.559 36.5986 143.486 30.4216C150.403 24.2549 158.627 19.8799 168.153 17.2966L232.819 -0.245117L264.673 117.213L202.153 134.172C194.153 136.338 186.257 137.151 178.465 136.609C170.663 136.078 163.361 134.031 156.569 130.463C149.778 126.89 143.981 121.692 139.173 114.859C134.83 109.234 131.918 102.843 130.444 95.6924C128.976 88.5518 129.173 81.4893 131.048 74.5049C132.965 66.7966 136.757 60.0257 142.423 54.1924C148.08 48.3695 154.861 44.6299 162.778 42.9632C167.194 42.3382 171.58 42.3174 175.923 42.9007C180.257 43.4945 184.517 44.9893 188.694 47.3799L189.486 45.0674C185.111 42.8278 180.668 41.2966 176.153 40.4632C171.627 39.6299 167.132 39.6976 162.673 40.6716C157.106 41.8226 151.986 44.0049 147.319 47.2132C142.653 50.432 138.647 54.3226 135.298 58.8799C131.955 63.432 129.642 68.3591 128.361 73.6507C127.903 75.0674 127.611 76.4945 127.486 77.9424C127.361 79.3851 127.184 80.7861 126.944 82.1507L125.486 82.0257Z" fill="#636363"/>
<path d="M134.76 87.302L133.953 84.3333C132.724 75.0364 133.818 66.1406 137.24 57.6562C140.635 49.2031 145.797 41.8802 152.714 35.6927C159.635 29.5312 167.865 25.1614 177.396 22.5729L242.057 5.03644L273.922 122.516L211.427 139.464C203.422 141.635 195.526 142.458 187.734 141.922C179.917 141.401 172.615 139.339 165.833 135.745C159.036 132.187 153.229 126.995 148.417 120.161C144.068 114.531 141.172 108.13 139.714 100.963C138.24 93.8333 138.438 86.7812 140.313 79.802C142.219 72.0989 146 65.3229 151.661 59.4791C157.323 53.6562 164.109 49.9062 172.021 48.2187C176.432 47.6302 180.813 47.6198 185.161 48.1927C189.495 48.7968 193.755 50.3021 197.943 52.7031L198.734 50.375C194.365 48.1406 189.922 46.5989 185.406 45.7552C180.87 44.9166 176.375 44.9843 171.927 45.9635C166.349 47.1302 161.234 49.3073 156.578 52.4948C151.906 55.7187 147.901 59.6041 144.568 64.1614C141.203 68.7239 138.875 73.651 137.578 78.9479C137.156 80.3593 136.885 81.7812 136.755 83.2239C136.604 84.677 136.411 86.0937 136.188 87.4791L134.76 87.302Z" stroke="white" stroke-width="1.17197"/>
</g>
<defs>
<clipPath id="clip0_638_9">
<rect width="274" height="169" fill="white"/>
</clipPath>
</defs>
</svg>
